<?xml version="1.0" encoding="UTF-8" standalone="no"?>
<!-- Created with Inkscape (http://www.inkscape.org/) -->

<svg
   width="300"
   height="300"
   viewBox="0 0 300 300"
   version="1.1"
   id="svg5"
   inkscape:version="1.4 (e7c3feb1, 2024-10-09)"
   xml:space="preserve"
   sodipodi:docname="balloons.svg"
   xmlns:inkscape="http://www.inkscape.org/namespaces/inkscape"
   xmlns:sodipodi="http://sodipodi.sourceforge.net/DTD/sodipodi-0.dtd"
   xmlns="http://www.w3.org/2000/svg"
   xmlns:svg="http://www.w3.org/2000/svg"><sodipodi:namedview
     id="namedview7"
     pagecolor="#ffffff"
     bordercolor="#666666"
     borderopacity="1.0"
     inkscape:showpageshadow="2"
     inkscape:pageopacity="0.0"
     inkscape:pagecheckerboard="true"
     inkscape:deskcolor="#d1d1d1"
     inkscape:document-units="px"
     showgrid="false"
     inkscape:zoom="1.3081787"
     inkscape:cx="178.49243"
     inkscape:cy="133.00935"
     inkscape:window-width="1504"
     inkscape:window-height="1177"
     inkscape:window-x="919"
     inkscape:window-y="213"
     inkscape:window-maximized="0"
     inkscape:current-layer="layer1" /><defs
     id="defs2" /><g
     inkscape:label="Layer 1"
     inkscape:groupmode="layer"
     id="layer1"><path
       id="path10"
       style="opacity:1;fill:#ff6f65;fill-opacity:0.8;stroke:#ff594c;stroke-width:4;stroke-linecap:round;stroke-linejoin:round;stroke-miterlimit:16;stroke-dasharray:none;stroke-dashoffset:88;stroke-opacity:1"
       d="M 147.25391 58.603516 A 37.5 37.5 0 0 0 109.75391 96.103516 A 37.5 37.5 0 0 0 147.25391 133.60352 A 37.5 37.5 0 0 0 177.60742 117.97266 C 186.99196 134.18253 197.78902 149.45508 201.73242 149.45508 C 209.67108 149.45508 245.39511 87.578202 241.42578 80.703125 C 238.60548 75.818228 201.7344 74.408081 179.19141 76.464844 A 37.5 37.5 0 0 0 147.25391 58.603516 z " /><path
       sodipodi:type="star"
       style="opacity:1;fill:#32abff;fill-opacity:0.8;stroke:#0a99ff;stroke-width:4;stroke-linecap:round;stroke-linejoin:round;stroke-miterlimit:16;stroke-dasharray:none;stroke-dashoffset:88;stroke-opacity:1"
       id="path7"
       inkscape:flatsided="false"
       sodipodi:sides="5"
       sodipodi:cx="-16.044519"
       sodipodi:cy="-146.08955"
       sodipodi:r1="24.261971"
       sodipodi:r2="50.358089"
       sodipodi:arg1="-1.548379"
       sodipodi:arg2="-0.92006052"
       inkscape:rounded="0.1"
       inkscape:randomized="0"
       d="m -15.500676,-170.34543 c 3.386903,0.0759 27.26625,-17.86315 29.961677,-15.81095 2.695428,2.05221 -8.2431458,29.84397 -7.2687562,33.08857 0.9743896,3.24461 25.4146062,20.41173 24.2957742,23.6094 -1.118832,3.19767 -30.93057339,1.3826 -33.7152713,3.31193 -2.7846977,1.92934 -11.5591597,30.478301 -14.9460637,30.402363 -3.386904,-0.07594 -10.872999,-28.989473 -13.568427,-31.041683 -2.695427,-2.05221 -32.55856,-1.5751 -33.532949,-4.81971 -0.97439,-3.2446 24.21069,-19.29908 25.329522,-22.49675 1.118832,-3.19767 -8.563137,-31.45176 -5.778439,-33.3811 2.784698,-1.92933 25.836029,17.06199 29.222933,17.13793 z"
       inkscape:transform-center-x="11.053858"
       inkscape:transform-center-y="0.78599518"
       transform="matrix(1,0,0,-1,109.96235,-28.976237)" /><path
       style="fill:none;stroke:#ffa047;stroke-width:4;stroke-linecap:round;stroke-linejoin:miter;stroke-dasharray:none;stroke-opacity:1"
       d="m 201.98345,152.76761 c 6.0949,31.55653 -5.5441,45.8261 -4.35512,68.76185 0.64443,12.43131 6.20155,36.82548 6.20155,36.82548"
       id="path4"
       sodipodi:nodetypes="cac" /><path
       style="fill:none;stroke:#ffa047;stroke-width:4;stroke-linecap:round;stroke-linejoin:miter;stroke-dasharray:none;stroke-opacity:1"
       d="m 147.92237,140.98471 c 6.0949,31.55653 -5.5441,45.8261 -4.35512,68.76185 0.64443,12.43131 6.20155,36.82548 6.20155,36.82548"
       id="path3"
       sodipodi:nodetypes="cac" /><path
       style="fill:none;stroke:#ffa047;stroke-width:4;stroke-linecap:round;stroke-linejoin:miter;stroke-dasharray:none;stroke-opacity:1"
       d="m 93.953521,149.44451 c 6.094899,31.55653 -5.544104,45.8261 -4.355123,68.76185 0.644435,12.43131 6.201554,36.82548 6.201554,36.82548"
       id="path9007"
       sodipodi:nodetypes="cac" /><path
       style="fill:none;fill-opacity:1;stroke:#ffffff;stroke-width:4;stroke-linecap:round;stroke-linejoin:round;stroke-dasharray:none;stroke-opacity:1;paint-order:markers stroke fill"
       id="path7025"
       sodipodi:type="arc"
       sodipodi:cx="146.69566"
       sodipodi:cy="95.352119"
       sodipodi:rx="29.296875"
       sodipodi:ry="29.296875"
       sodipodi:start="4.712389"
       sodipodi:end="5.4977871"
       sodipodi:arc-type="arc"
       d="M 146.69566,66.055244 A 29.296875,29.296875 0 0 1 167.41168,74.6361"
       sodipodi:open="true" /><path
       style="fill:#0a99ff;fill-opacity:1;stroke:#0a99ff;stroke-width:4;stroke-linecap:round;stroke-linejoin:round;stroke-dasharray:none;stroke-opacity:1"
       d="m 90.757134,150.07249 3.544807,-8.09819 3.767212,8.09819 z"
       id="path8675"
       sodipodi:nodetypes="cccc" /><path
       style="fill:#ff594c;fill-opacity:1;stroke:#ff594c;stroke-width:4;stroke-linecap:round;stroke-linejoin:round;stroke-dasharray:none;stroke-opacity:1"
       d="m 144.26636,142.76371 3.54481,-8.09819 3.76721,8.09819 z"
       id="path1"
       sodipodi:nodetypes="cccc" /><path
       style="fill:#ff594c;fill-opacity:1;stroke:#ff594c;stroke-width:4;stroke-linecap:round;stroke-linejoin:round;stroke-dasharray:none;stroke-opacity:1"
       d="m 198.92044,157.85686 3.54481,-8.09819 3.76721,8.09819 z"
       id="path2"
       sodipodi:nodetypes="cccc" /><path
       id="circle7"
       style="opacity:1;fill:#2ef942;fill-opacity:0.80000001;stroke:#11b320;stroke-width:4.10023;stroke-linecap:round;stroke-linejoin:round;stroke-miterlimit:16;stroke-dasharray:none;stroke-dashoffset:88;stroke-opacity:1"
       d="M 109.35938 97.630859 A 37.5 37.5 0 0 0 119.63867 121.19336 C 126.01914 115.18328 142.37156 103.11294 141.45117 100.48242 C 140.44283 97.600524 116.19014 98.780138 109.35938 97.630859 z " /><path
       style="fill:none;stroke:#ffffff;stroke-width:4;stroke-linecap:round;stroke-linejoin:round;stroke-dasharray:none;stroke-opacity:1"
       d="m 98.057866,93.136398 c 0.870818,2.723182 2.572014,5.931421 5.353014,8.253382"
       id="path8"
       sodipodi:nodetypes="cc" /><path
       style="fill:none;stroke:#ffffff;stroke-width:4;stroke-linecap:round;stroke-linejoin:round;stroke-dasharray:none;stroke-opacity:1"
       d="m 217.13053,83.342797 c 4.40462,-0.227043 8.86236,0.0632 12.81332,1.018217"
       id="path8-5"
       sodipodi:nodetypes="cc" /></g></svg>
