<?xml version="1.0" encoding="UTF-8" standalone="no"?>
<!-- Created with Inkscape (http://www.inkscape.org/) -->

<svg
   width="300"
   height="300"
   viewBox="0 0 300 300"
   version="1.1"
   id="svg5"
   inkscape:version="1.3.2 (091e20e, 2023-11-25)"
   xml:space="preserve"
   sodipodi:docname="balloons.svg"
   xmlns:inkscape="http://www.inkscape.org/namespaces/inkscape"
   xmlns:sodipodi="http://sodipodi.sourceforge.net/DTD/sodipodi-0.dtd"
   xmlns="http://www.w3.org/2000/svg"
   xmlns:svg="http://www.w3.org/2000/svg"><sodipodi:namedview
     id="namedview7"
     pagecolor="#ffffff"
     bordercolor="#666666"
     borderopacity="1.0"
     inkscape:showpageshadow="2"
     inkscape:pageopacity="0.0"
     inkscape:pagecheckerboard="true"
     inkscape:deskcolor="#d1d1d1"
     inkscape:document-units="px"
     showgrid="false"
     inkscape:zoom="0.36897191"
     inkscape:cx="344.19964"
     inkscape:cy="512.23411"
     inkscape:window-width="1504"
     inkscape:window-height="1177"
     inkscape:window-x="389"
     inkscape:window-y="89"
     inkscape:window-maximized="0"
     inkscape:current-layer="layer1" /><defs
     id="defs2" /><g
     inkscape:label="Layer 1"
     inkscape:groupmode="layer"
     id="layer1"><path
       style="fill:none;stroke:#ff9955;stroke-width:2.34375;stroke-linecap:round;stroke-linejoin:miter;stroke-dasharray:none;stroke-opacity:1"
       d="m 206.72982,147.62803 c 0,0 1.63913,10.40597 1.90934,15.65653 0.70666,13.73138 -1.47376,27.51038 -0.76373,41.24159 0.64898,12.55071 4.58239,37.42293 4.58239,37.42293"
       id="path9060"
       sodipodi:nodetypes="caac" /><path
       style="fill:none;stroke:#ff9955;stroke-width:2.34375;stroke-linecap:round;stroke-linejoin:miter;stroke-dasharray:none;stroke-opacity:1"
       d="m 89.496773,146.86429 c 0,0 0.98323,12.46474 1.145599,18.71146 0.360533,13.87039 -1.04136,27.76408 -0.381864,41.62347 0.523154,10.99418 3.436799,32.84052 3.436799,32.84052"
       id="path9007"
       sodipodi:nodetypes="caac" /><path
       id="path512"
       style="fill:#33abff;fill-opacity:0.75;stroke:#0a99ff;stroke-width:2.61441;stroke-linecap:round;stroke-linejoin:round;stroke-dashoffset:3;stroke-opacity:1;paint-order:markers fill stroke"
       d="m 89.610627,66.739731 a 37.5,37.5 0 0 0 -37.5,37.499999 37.5,37.5 0 0 0 37.5,37.5 37.5,37.5 0 0 0 32.717513,-19.26727 37.5,37.5 0 0 1 -11.62376,-27.021791 37.5,37.5 0 0 1 4.85458,-18.262482 37.5,37.5 0 0 0 -25.948333,-10.448456 z" /><path
       id="path6965"
       style="fill:#ff7065;fill-opacity:0.75;stroke:#ff594c;stroke-width:2.61441;stroke-linecap:round;stroke-linejoin:round;stroke-dashoffset:3;stroke-opacity:1;paint-order:markers fill stroke"
       d="m 148.20438,57.950669 a 37.5,37.5 0 0 0 -32.64542,19.237518 37.5,37.5 0 0 1 11.55167,27.051543 37.5,37.5 0 0 1 -4.78249,18.23273 37.5,37.5 0 0 0 25.87624,10.47821 37.5,37.5 0 0 0 24.87774,-9.47971 37.5,37.5 0 0 0 33.71601,21.19846 37.5,37.5 0 0 0 37.5,-37.5 37.5,37.5 0 0 0 -37.5,-37.500001 37.5,37.5 0 0 0 -24.84513,9.447097 37.5,37.5 0 0 0 -33.74862,-21.165847 z" /><path
       id="circle1070"
       style="fill:#58f367;fill-opacity:0.75;stroke:#30e749;stroke-width:2.61441;stroke-linecap:round;stroke-linejoin:round;stroke-dashoffset:3;stroke-opacity:1;paint-order:markers fill stroke"
       d="m 115.52062,77.145844 a 37.5,37.5 0 0 0 -4.81624,18.304825 37.5,37.5 0 0 0 11.61117,26.942251 37.5,37.5 0 0 0 4.79508,-18.15319 37.5,37.5 0 0 0 -11.59001,-27.093886 z" /><path
       style="fill:#ff2a2a;stroke:#ff594c;stroke-width:4.6875;stroke-linecap:round;stroke-linejoin:miter;stroke-dasharray:none;stroke-opacity:1"
       d="m 203.00062,148.04948 h 7.31202"
       id="path1093"
       sodipodi:nodetypes="cc" /><path
       style="fill:none;fill-opacity:1;stroke:#ffffff;stroke-width:4.6875;stroke-linecap:round;stroke-linejoin:round;stroke-dasharray:none;stroke-opacity:1;paint-order:markers stroke fill"
       id="path1703"
       sodipodi:type="arc"
       sodipodi:cx="208.2191"
       sodipodi:cy="107.90792"
       sodipodi:rx="29.296875"
       sodipodi:ry="29.296875"
       sodipodi:start="4.712389"
       sodipodi:end="5.4977871"
       sodipodi:arc-type="arc"
       d="m 208.2191,78.611046 a 29.296875,29.296875 0 0 1 20.71602,8.580855"
       sodipodi:open="true" /><path
       style="fill:none;fill-opacity:1;stroke:#ffffff;stroke-width:4.6875;stroke-linecap:round;stroke-linejoin:round;stroke-dasharray:none;stroke-opacity:1;paint-order:markers stroke fill"
       id="path7025"
       sodipodi:type="arc"
       sodipodi:cx="146.69566"
       sodipodi:cy="95.352119"
       sodipodi:rx="29.296875"
       sodipodi:ry="29.296875"
       sodipodi:start="4.712389"
       sodipodi:end="5.4977871"
       sodipodi:arc-type="arc"
       d="M 146.69566,66.055244 A 29.296875,29.296875 0 0 1 167.41168,74.6361"
       sodipodi:open="true" /><path
       style="fill:none;fill-opacity:1;stroke:#ffffff;stroke-width:4.6875;stroke-linecap:round;stroke-linejoin:round;stroke-dasharray:none;stroke-opacity:1;paint-order:markers stroke fill"
       id="path7027"
       sodipodi:type="arc"
       sodipodi:cx="89.758331"
       sodipodi:cy="102.6891"
       sodipodi:rx="29.296875"
       sodipodi:ry="29.296875"
       sodipodi:start="4.7636492"
       sodipodi:end="5.2859157"
       sodipodi:arc-type="arc"
       d="m 91.259438,73.430709 a 29.296875,29.296875 0 0 1 14.395312,4.649235"
       sodipodi:open="true" /><path
       style="fill:none;stroke:#ff9955;stroke-width:2.34375;stroke-linecap:round;stroke-linejoin:miter;stroke-dasharray:none;stroke-opacity:1"
       d="m 147.92237,136.93576 c 0,0 0.9012,12.46741 1.14559,18.71146 0.58255,14.88358 -0.46327,29.83405 0.76374,44.6784 0.99653,12.05601 5.34613,35.89546 5.34613,35.89546"
       id="path9058"
       sodipodi:nodetypes="caac" /><path
       style="fill:#ff2a2a;stroke:#ff594c;stroke-width:4.6875;stroke-linecap:round;stroke-linejoin:miter;stroke-dasharray:none;stroke-opacity:1"
       d="m 144.60823,136.31643 h 7.31202"
       id="path8673"
       sodipodi:nodetypes="cc" /><path
       style="fill:#ff2a2a;stroke:#0a99ff;stroke-width:4.6875;stroke-linecap:round;stroke-linejoin:miter;stroke-dasharray:none;stroke-opacity:1"
       d="m 85.942978,144.91157 h 7.312019"
       id="path8675"
       sodipodi:nodetypes="cc" /></g></svg>
