<?xml version="1.0" encoding="UTF-8" standalone="no"?>
<!-- Created with Inkscape (http://www.inkscape.org/) -->

<svg
   width="1024"
   height="1024"
   viewBox="0 0 1024 1024"
   version="1.1"
   id="svg5"
   inkscape:version="1.2.2 (b0a8486, 2022-12-01)"
   xml:space="preserve"
   sodipodi:docname="ballons.svg"
   xmlns:inkscape="http://www.inkscape.org/namespaces/inkscape"
   xmlns:sodipodi="http://sodipodi.sourceforge.net/DTD/sodipodi-0.dtd"
   xmlns="http://www.w3.org/2000/svg"
   xmlns:svg="http://www.w3.org/2000/svg"><sodipodi:namedview
     id="namedview7"
     pagecolor="#ffffff"
     bordercolor="#666666"
     borderopacity="1.0"
     inkscape:showpageshadow="2"
     inkscape:pageopacity="0.0"
     inkscape:pagecheckerboard="true"
     inkscape:deskcolor="#d1d1d1"
     inkscape:document-units="px"
     showgrid="false"
     inkscape:zoom="0.46969006"
     inkscape:cx="472.65212"
     inkscape:cy="390.68317"
     inkscape:window-width="1501"
     inkscape:window-height="1177"
     inkscape:window-x="389"
     inkscape:window-y="117"
     inkscape:window-maximized="0"
     inkscape:current-layer="layer1" /><defs
     id="defs2" /><g
     inkscape:label="Layer 1"
     inkscape:groupmode="layer"
     id="layer1"><path
       style="fill:none;stroke:#ff9955;stroke-width:8;stroke-linecap:round;stroke-linejoin:miter;stroke-dasharray:none;stroke-opacity:1"
       d="m 705.6378,503.90366 c 0,0 5.59487,35.51905 6.51719,53.44096 2.41206,46.86979 -5.03043,93.90211 -2.60687,140.77131 2.2152,42.83976 15.64125,127.73692 15.64125,127.73692"
       id="path9060"
       sodipodi:nodetypes="caac" /><path
       style="fill:none;stroke:#ff9955;stroke-width:8;stroke-linecap:round;stroke-linejoin:miter;stroke-dasharray:none;stroke-opacity:1"
       d="m 305.48232,501.29678 c 0,0 3.35609,42.54631 3.91031,63.86846 1.23062,47.34425 -3.55451,94.76803 -1.30343,142.07475 1.7857,37.52681 11.73094,112.09567 11.73094,112.09567"
       id="path9007"
       sodipodi:nodetypes="caac" /><path
       id="path512"
       style="fill:#33abff;fill-opacity:0.75;stroke:#0a99ff;stroke-width:8.92385;stroke-linecap:round;stroke-linejoin:round;stroke-dashoffset:3;stroke-opacity:1;paint-order:markers fill stroke"
       d="m 305.87094,227.80495 a 128,128 0 0 0 -128,128 128,128 0 0 0 128,128 128,128 0 0 0 111.67578,-65.76562 128,128 0 0 1 -39.67578,-92.23438 128,128 0 0 1 16.57031,-62.33594 128,128 0 0 0 -88.57031,-35.66406 z" /><path
       id="path6965"
       style="fill:#ff7065;fill-opacity:0.75;stroke:#ff594c;stroke-width:8.92385;stroke-linecap:round;stroke-linejoin:round;stroke-dashoffset:3;stroke-opacity:1;paint-order:markers fill stroke"
       d="m 505.87094,197.80495 a 128,128 0 0 0 -111.42969,65.66406 128,128 0 0 1 39.42969,92.33594 128,128 0 0 1 -16.32422,62.23438 128,128 0 0 0 88.32422,35.76562 128,128 0 0 0 84.91602,-32.35742 128,128 0 0 0 115.08398,72.35742 128,128 0 0 0 128,-128 128,128 0 0 0 -128,-128 128,128 0 0 0 -84.80469,32.24609 128,128 0 0 0 -115.19531,-72.24609 z" /><path
       id="circle1070"
       style="fill:#58f367;fill-opacity:0.75;stroke:#30e749;stroke-width:8.92385;stroke-linecap:round;stroke-linejoin:round;stroke-dashoffset:3;stroke-opacity:1;paint-order:markers fill stroke"
       d="m 394.31039,263.32448 a 128,128 0 0 0 -16.43945,62.48047 128,128 0 0 0 39.63281,91.96289 128,128 0 0 0 16.36719,-61.96289 128,128 0 0 0 -39.56055,-92.48047 z" /><path
       style="fill:#ff2a2a;stroke:#ff594c;stroke-width:16;stroke-linecap:round;stroke-linejoin:miter;stroke-dasharray:none;stroke-opacity:1"
       d="m 692.90877,505.34222 h 24.95836"
       id="path1093"
       sodipodi:nodetypes="cc" /><path
       style="fill:none;fill-opacity:1;stroke:#ffffff;stroke-width:16;stroke-linecap:round;stroke-linejoin:round;stroke-dasharray:none;stroke-opacity:1;paint-order:markers stroke fill"
       id="path1703"
       sodipodi:type="arc"
       sodipodi:cx="710.72119"
       sodipodi:cy="368.32571"
       sodipodi:rx="100"
       sodipodi:ry="100"
       sodipodi:start="4.712389"
       sodipodi:end="5.4977871"
       sodipodi:arc-type="arc"
       d="m 710.72119,268.32571 a 100,100 0 0 1 70.71068,29.28932"
       sodipodi:open="true" /><path
       style="fill:none;fill-opacity:1;stroke:#ffffff;stroke-width:16;stroke-linecap:round;stroke-linejoin:round;stroke-dasharray:none;stroke-opacity:1;paint-order:markers stroke fill"
       id="path7025"
       sodipodi:type="arc"
       sodipodi:cx="500.72122"
       sodipodi:cy="325.46857"
       sodipodi:rx="100"
       sodipodi:ry="100"
       sodipodi:start="4.712389"
       sodipodi:end="5.4977871"
       sodipodi:arc-type="arc"
       d="m 500.72122,225.46857 a 100,100 0 0 1 70.71068,29.28932"
       sodipodi:open="true" /><path
       style="fill:none;fill-opacity:1;stroke:#ffffff;stroke-width:16;stroke-linecap:round;stroke-linejoin:round;stroke-dasharray:none;stroke-opacity:1;paint-order:markers stroke fill"
       id="path7027"
       sodipodi:type="arc"
       sodipodi:cx="306.37509"
       sodipodi:cy="350.51215"
       sodipodi:rx="100"
       sodipodi:ry="100"
       sodipodi:start="4.7636492"
       sodipodi:end="5.2859157"
       sodipodi:arc-type="arc"
       d="m 311.49887,250.6435 a 100,100 0 0 1 49.13601,15.86938"
       sodipodi:open="true" /><path
       style="fill:none;stroke:#ff9955;stroke-width:8;stroke-linecap:round;stroke-linejoin:miter;stroke-dasharray:none;stroke-opacity:1"
       d="m 504.90834,467.40739 c 0,0 3.07611,42.55543 3.91031,63.86846 1.98843,50.80261 -1.58131,101.83354 2.60688,152.50225 3.40149,41.1512 18.24813,122.52318 18.24813,122.52318"
       id="path9058"
       sodipodi:nodetypes="caac" /><path
       style="fill:#ff2a2a;stroke:#ff594c;stroke-width:16;stroke-linecap:round;stroke-linejoin:miter;stroke-dasharray:none;stroke-opacity:1"
       d="m 493.59608,465.29341 h 24.95836"
       id="path8673"
       sodipodi:nodetypes="cc" /><path
       style="fill:#ff2a2a;stroke:#0a99ff;stroke-width:16;stroke-linecap:round;stroke-linejoin:miter;stroke-dasharray:none;stroke-opacity:1"
       d="m 293.35203,494.63149 h 24.95836"
       id="path8675"
       sodipodi:nodetypes="cc" /></g></svg>
