<?xml version="1.0" encoding="UTF-8" standalone="no"?>
<!-- Created with Inkscape (http://www.inkscape.org/) -->

<svg
   width="2560"
   height="1024"
   viewBox="0 0 2560 1024"
   version="1.1"
   id="svg5"
   inkscape:version="1.4 (e7c3feb1, 2024-10-09)"
   sodipodi:docname="line_cap.svg"
   inkscape:export-filename="A_subtract_B.png"
   inkscape:export-xdpi="96"
   inkscape:export-ydpi="96"
   xmlns:inkscape="http://www.inkscape.org/namespaces/inkscape"
   xmlns:sodipodi="http://sodipodi.sourceforge.net/DTD/sodipodi-0.dtd"
   xmlns="http://www.w3.org/2000/svg"
   xmlns:svg="http://www.w3.org/2000/svg">
  <sodipodi:namedview
     id="namedview7"
     pagecolor="#ffffff"
     bordercolor="#666666"
     borderopacity="1.0"
     inkscape:showpageshadow="2"
     inkscape:pageopacity="0.0"
     inkscape:pagecheckerboard="true"
     inkscape:deskcolor="#d1d1d1"
     inkscape:document-units="px"
     showgrid="true"
     inkscape:zoom="0.3784806"
     inkscape:cx="1436.0049"
     inkscape:cy="307.8097"
     inkscape:window-width="1872"
     inkscape:window-height="1212"
     inkscape:window-x="755"
     inkscape:window-y="64"
     inkscape:window-maximized="0"
     inkscape:current-layer="layer1"
     showguides="false">
    <inkscape:grid
       id="grid1"
       units="px"
       originx="0"
       originy="0"
       spacingx="16"
       spacingy="16"
       empcolor="#0099e5"
       empopacity="0.30196078"
       color="#0099e5"
       opacity="0.14901961"
       empspacing="8"
       dotted="false"
       gridanglex="30"
       gridanglez="30"
       visible="true"
       enabled="true" />
  </sodipodi:namedview>
  <defs
     id="defs2">
    <inkscape:path-effect
       effect="fillet_chamfer"
       id="path-effect27"
       is_visible="true"
       lpeversion="1"
       nodesatellites_param="F,0,0,1,0,5.2415627,0,1 @ F,0,0,1,0,0,0,1 @ F,0,0,1,0,4,0,1 @ F,0,0,1,0,4.2116687,0,1 @ F,0,0,1,0,0,0,1 @ F,0,0,1,0,5.6358588,0,1 @ F,0,0,1,0,0,0,1"
       radius="0"
       unit="px"
       method="auto"
       mode="F"
       chamfer_steps="1"
       flexible="false"
       use_knot_distance="true"
       apply_no_radius="true"
       apply_with_radius="true"
       only_selected="false"
       hide_knots="false" />
    <inkscape:path-effect
       effect="fillet_chamfer"
       id="path-effect25"
       is_visible="true"
       lpeversion="1"
       nodesatellites_param="F,0,0,1,0,5.2415627,0,1 @ F,0,0,1,0,0,0,1 @ F,0,0,1,0,4,0,1 @ F,0,0,1,0,4.2116687,0,1 @ F,0,0,1,0,0,0,1 @ F,0,0,1,0,5.6358588,0,1 @ F,0,0,1,0,0,0,1"
       radius="0"
       unit="px"
       method="auto"
       mode="F"
       chamfer_steps="1"
       flexible="false"
       use_knot_distance="true"
       apply_no_radius="true"
       apply_with_radius="true"
       only_selected="false"
       hide_knots="false" />
    <inkscape:path-effect
       effect="fillet_chamfer"
       id="path-effect49"
       is_visible="true"
       lpeversion="1"
       nodesatellites_param="F,0,0,1,0,5.2415627,0,1 @ F,0,0,1,0,0,0,1 @ F,0,0,1,0,4,0,1 @ F,0,0,1,0,4.2116687,0,1 @ F,0,0,1,0,0,0,1 @ F,0,0,1,0,5.6358588,0,1 @ F,0,0,1,0,0,0,1"
       radius="0"
       unit="px"
       method="auto"
       mode="F"
       chamfer_steps="1"
       flexible="false"
       use_knot_distance="true"
       apply_no_radius="true"
       apply_with_radius="true"
       only_selected="false"
       hide_knots="false" />
    <inkscape:path-effect
       effect="fillet_chamfer"
       id="path-effect49-9"
       is_visible="true"
       lpeversion="1"
       nodesatellites_param="F,0,0,1,0,5.2415627,0,1 @ F,0,0,1,0,0,0,1 @ F,0,0,1,0,4,0,1 @ F,0,0,1,0,4.2116687,0,1 @ F,0,0,1,0,0,0,1 @ F,0,0,1,0,5.6358588,0,1 @ F,0,0,1,0,0,0,1"
       radius="0"
       unit="px"
       method="auto"
       mode="F"
       chamfer_steps="1"
       flexible="false"
       use_knot_distance="true"
       apply_no_radius="true"
       apply_with_radius="true"
       only_selected="false"
       hide_knots="false" />
  </defs>
  <g
     inkscape:label="Layer 1"
     inkscape:groupmode="layer"
     id="layer1">
    <g
       id="g42">
      <path
         style="fill:#696969;stroke:#696969;stroke-width:1px;stroke-linecap:butt;stroke-linejoin:miter;stroke-opacity:1"
         d="M 2048,0 V 1024"
         id="path39"
         sodipodi:nodetypes="cc" />
      <path
         style="fill:#000000;stroke:#808080;stroke-width:1px;stroke-linecap:butt;stroke-linejoin:miter;stroke-opacity:0.5"
         d="M 128,0 V 1024"
         id="path11"
         sodipodi:nodetypes="cc" />
      <path
         style="fill:#000000;stroke:#808080;stroke-width:1px;stroke-linecap:butt;stroke-linejoin:miter;stroke-opacity:0.5"
         d="M 1024,0 V 1024"
         id="path10"
         sodipodi:nodetypes="cc" />
      <path
         style="fill:#000000;stroke:#808080;stroke-width:1px;stroke-linecap:butt;stroke-linejoin:miter;stroke-opacity:0.5"
         d="M 2560,128 H 0"
         id="path28"
         sodipodi:nodetypes="cc" />
      <path
         style="fill:#000000;stroke:#808080;stroke-width:1px;stroke-linecap:butt;stroke-linejoin:miter;stroke-opacity:0.5"
         d="M 2560,384 H 0"
         id="path30"
         sodipodi:nodetypes="cc" />
      <path
         style="fill:#000000;stroke:#808080;stroke-width:1px;stroke-linecap:butt;stroke-linejoin:miter;stroke-opacity:0.5"
         d="M 2560,512 H 0"
         id="path31"
         sodipodi:nodetypes="cc" />
      <path
         style="fill:#000000;stroke:#808080;stroke-width:1px;stroke-linecap:butt;stroke-linejoin:miter;stroke-opacity:0.5"
         d="M 2560,640 H 0"
         id="path32"
         sodipodi:nodetypes="cc" />
      <path
         style="fill:#000000;stroke:#808080;stroke-width:1px;stroke-linecap:butt;stroke-linejoin:miter;stroke-opacity:0.5"
         d="M 2560,768 H 0"
         id="path7"
         sodipodi:nodetypes="cc" />
      <path
         style="fill:#000000;stroke:#808080;stroke-width:1px;stroke-linecap:butt;stroke-linejoin:miter;stroke-opacity:0.5"
         d="M 2560,256 H 0"
         id="path8"
         sodipodi:nodetypes="cc" />
      <path
         style="fill:#000000;stroke:#808080;stroke-width:1px;stroke-linecap:butt;stroke-linejoin:miter;stroke-opacity:0.5"
         d="M 256,0 V 1024"
         id="path13"
         sodipodi:nodetypes="cc" />
      <path
         style="fill:#000000;stroke:#808080;stroke-width:1px;stroke-linecap:butt;stroke-linejoin:miter;stroke-opacity:0.5"
         d="M 384,0 V 1024"
         id="path14"
         sodipodi:nodetypes="cc" />
      <path
         style="fill:#000000;stroke:#808080;stroke-width:1px;stroke-linecap:butt;stroke-linejoin:miter;stroke-opacity:0.5"
         d="M 512,0 V 1024"
         id="path15"
         sodipodi:nodetypes="cc" />
      <path
         style="fill:#000000;stroke:#808080;stroke-width:1px;stroke-linecap:butt;stroke-linejoin:miter;stroke-opacity:0.5"
         d="M 640,0 V 1024"
         id="path16"
         sodipodi:nodetypes="cc" />
      <path
         style="fill:#000000;stroke:#808080;stroke-width:1px;stroke-linecap:butt;stroke-linejoin:miter;stroke-opacity:0.5"
         d="M 768,0 V 1024"
         id="path17"
         sodipodi:nodetypes="cc" />
      <path
         style="fill:#000000;stroke:#808080;stroke-width:1px;stroke-linecap:butt;stroke-linejoin:miter;stroke-opacity:0.5"
         d="M 896,0 V 1024"
         id="path9"
         sodipodi:nodetypes="cc" />
      <path
         style="fill:#000000;stroke:#808080;stroke-width:1px;stroke-linecap:butt;stroke-linejoin:miter;stroke-opacity:0.5"
         d="M 1152,0 V 1024"
         id="path12"
         sodipodi:nodetypes="cc" />
      <path
         style="fill:#000000;stroke:#808080;stroke-width:1px;stroke-linecap:butt;stroke-linejoin:miter;stroke-opacity:0.5"
         d="M 1280,0 V 1024"
         id="path18"
         sodipodi:nodetypes="cc" />
      <path
         style="fill:#000000;stroke:#808080;stroke-width:1px;stroke-linecap:butt;stroke-linejoin:miter;stroke-opacity:0.5"
         d="M 1408,0 V 1024"
         id="path19"
         sodipodi:nodetypes="cc" />
      <path
         style="fill:#000000;stroke:#808080;stroke-width:1px;stroke-linecap:butt;stroke-linejoin:miter;stroke-opacity:0.5"
         d="M 1664,0 V 1024"
         id="path20"
         sodipodi:nodetypes="cc" />
      <path
         style="fill:#000000;stroke:#808080;stroke-width:1px;stroke-linecap:butt;stroke-linejoin:miter;stroke-opacity:0.5"
         d="M 1792,0 V 1024"
         id="path21"
         sodipodi:nodetypes="cc" />
      <path
         style="fill:#000000;stroke:#808080;stroke-width:1px;stroke-linecap:butt;stroke-linejoin:miter;stroke-opacity:0.5"
         d="M 1920,0 V 1024"
         id="path22"
         sodipodi:nodetypes="cc" />
      <path
         style="fill:#000000;stroke:#808080;stroke-width:1px;stroke-linecap:butt;stroke-linejoin:miter;stroke-opacity:0.5"
         d="M 2560,896 H 0"
         id="path37"
         sodipodi:nodetypes="cc" />
      <path
         style="fill:#000000;stroke:#808080;stroke-width:1px;stroke-linecap:butt;stroke-linejoin:miter;stroke-opacity:0.5"
         d="M 1536,0 V 1024"
         id="path38"
         sodipodi:nodetypes="cc" />
      <path
         style="fill:#000000;stroke:#808080;stroke-width:1px;stroke-linecap:butt;stroke-linejoin:miter;stroke-opacity:0.5"
         d="M 2176,0 V 1024"
         id="path40"
         sodipodi:nodetypes="cc" />
      <path
         style="fill:#000000;stroke:#808080;stroke-width:1px;stroke-linecap:butt;stroke-linejoin:miter;stroke-opacity:0.5"
         d="M 2304,0 V 1024"
         id="path41"
         sodipodi:nodetypes="cc" />
      <path
         style="fill:#000000;stroke:#808080;stroke-width:1px;stroke-linecap:butt;stroke-linejoin:miter;stroke-opacity:0.5"
         d="M 2432,0 V 1024"
         id="path42"
         sodipodi:nodetypes="cc" />
    </g>
    <path
       style="fill:#1fc71f;fill-opacity:0.196078;stroke:#20c720;stroke-width:8;stroke-linecap:butt;stroke-linejoin:miter;stroke-dasharray:none;stroke-opacity:1"
       d="M 768,768 V 256 h 256 v 512"
       id="path24"
       sodipodi:nodetypes="cccc" />
    <path
       style="fill:#1fc71f;fill-opacity:0.196078;stroke:#20c720;stroke-width:8;stroke-linecap:butt;stroke-linejoin:miter;stroke-dasharray:none;stroke-opacity:1"
       d="M 1920,768 V 384 l -128,64 256,-320 256,320 -128,-64 v 384"
       id="path34"
       sodipodi:nodetypes="ccccccc" />
    <path
       id="path26"
       style="fill:#1fc71f;fill-opacity:0.196078;stroke:#20c720;stroke-width:8;stroke-linecap:butt;stroke-linejoin:miter;stroke-dasharray:none;stroke-opacity:1"
       d="M 1536,768 V 384 c 0,-70.69245 -57.3076,-128 -128,-128 -70.6924,0 -128,57.30755 -128,128 v 384"
       sodipodi:nodetypes="csssc" />
    <g
       id="g3"
       style="opacity:1;fill:#c71585;fill-opacity:1;stroke:none;stroke-opacity:1" />
    <path
       style="fill:#000000;stroke:#808080;stroke-width:1px;stroke-linecap:butt;stroke-linejoin:miter;stroke-opacity:0.5"
       d="M 1024,-896 H 0"
       id="path29"
       sodipodi:nodetypes="cc" />
    <path
       style="fill:#1fc71f;fill-opacity:0.196078;stroke:#20c720;stroke-width:8;stroke-linecap:butt;stroke-linejoin:miter;stroke-dasharray:none;stroke-opacity:1"
       d="M 256,768 V 384 h 256 v 384"
       id="path23" />
    <path
       style="fill:#a9a9a9;stroke:#808080;stroke-width:16;stroke-linecap:butt;stroke-linejoin:miter;stroke-dasharray:none;stroke-opacity:1"
       d="M 384,384 V 768"
       id="path3"
       sodipodi:nodetypes="cc" />
    <path
       style="fill:#a9a9a9;stroke:#808080;stroke-width:16;stroke-linecap:butt;stroke-linejoin:miter;stroke-dasharray:none;stroke-opacity:1"
       d="M 896,384 V 768"
       id="path4"
       sodipodi:nodetypes="cc" />
    <path
       style="fill:#a9a9a9;stroke:#808080;stroke-width:16;stroke-linecap:butt;stroke-linejoin:miter;stroke-dasharray:none;stroke-opacity:1"
       d="M 1408,384 V 768"
       id="path5"
       sodipodi:nodetypes="cc" />
    <path
       style="fill:#a9a9a9;stroke:#808080;stroke-width:16;stroke-linecap:butt;stroke-linejoin:miter;stroke-dasharray:none;stroke-opacity:1"
       d="M 2048,384 V 768"
       id="path6"
       sodipodi:nodetypes="cc" />
    <path
       style="font-size:85.3333px;line-height:1.25;font-family:'.SF NS Rounded';-inkscape-font-specification:'.SF NS Rounded';text-align:center;word-spacing:0px;text-anchor:middle;fill:#ff8c00"
       d="m 318.31254,942.375 h 18.95832 q 6.41667,0 10.95833,-2 4.54167,-2.04166 6.95833,-5.79166 2.45833,-3.79167 2.45833,-9.08333 0,-4 -1.66666,-7.125 -1.625,-3.16667 -4.66667,-5.16666 -3,-2 -7.08333,-2.5 v -0.33334 q 2.91667,-0.54166 5.25,-2.45833 2.33333,-1.91666 3.70833,-4.70833 1.41667,-2.83333 1.41667,-5.95833 0,-4.5 -2.16667,-7.875 -2.16666,-3.375 -6.04166,-5.25 -3.875,-1.87499 -9.04166,-1.87499 h -19.04166 q -1.70834,0 -2.75,1.04166 -1,1.04167 -1,2.83333 V 938.5 q 0,1.79167 1,2.83333 1.04166,1.04167 2.75,1.04167 z m 3.75,-34.20832 v -19.29166 h 13.58332 q 5.45833,0 8.41667,2.41667 2.95833,2.375 2.95833,6.83333 0,4.875 -3.54167,7.45833 -3.5,2.58333 -10.16666,2.58333 z m 0,27.58332 v -21.12499 h 13.37499 q 7.20833,0 10.83333,2.66667 3.66666,2.625 3.66666,7.83333 0,5.20833 -3.49999,7.91666 -3.5,2.70833 -10.29167,2.70833 z m 57.74997,7.375 q 3.33333,0 5.95833,-0.875 2.625,-0.91667 4.54167,-2.66667 1.95833,-1.74999 3.25,-4.24999 h 0.16666 v 4.12499 q 0,1.54167 0.95834,2.625 0.95833,1.04167 2.5,1.04167 1.58333,0 2.49999,-1.04167 0.91667,-1.08333 0.91667,-2.625 v -37.29165 q 0,-1.70833 -1.04167,-2.79166 -1,-1.08333 -2.58333,-1.08333 -1.58333,0 -2.625,1.08333 -1,1.08333 -1,2.79166 v 22.33333 q 0,3.66666 -1.375,6.41666 -1.33333,2.75 -3.87499,4.29167 -2.5,1.5 -6.04167,1.5 -5.04166,0 -7.54166,-2.75 -2.45833,-2.79167 -2.45833,-8.08333 v -23.70833 q 0,-1.70833 -1.04167,-2.79166 -1,-1.08333 -2.58333,-1.08333 -1.58334,0 -2.625,1.08333 -1,1.08333 -1,2.79166 v 24.99999 q 0,4.91667 1.75,8.5 1.79166,3.58333 5.16666,5.54166 3.375,1.91667 8.08333,1.91667 z m 32.49999,-10.75 q 0,5.16667 2.625,7.75 2.625,2.58333 7.87499,2.58333 h 0.45834 q 2.04166,0 3.16666,-0.375 1.16667,-0.375 1.625,-1.125 0.5,-0.79166 0.5,-1.875 0,-1.29166 -0.83333,-1.99999 -0.83334,-0.70834 -2.625,-0.83334 l -0.625,-0.0417 q -2.70833,-0.20834 -3.83333,-1.54167 -1.08334,-1.375 -1.08334,-4.125 v -25.79165 h 5.58334 q 1.58333,0 2.41666,-0.79167 0.83333,-0.79167 0.83333,-2.20833 0,-1.41667 -0.83333,-2.16667 -0.83333,-0.79167 -2.41666,-0.79167 h -5.58334 v -7.41666 q 0,-1.70833 -1.04166,-2.79166 -1,-1.08334 -2.58333,-1.08334 -1.58334,0 -2.625,1.08334 -1,1.08333 -1,2.79166 v 7.41666 h -3.625 q -1.54167,0 -2.41667,0.79167 -0.83333,0.75 -0.83333,2.16667 0,1.41666 0.83333,2.20833 0.875,0.79167 2.41667,0.79167 h 3.625 z m 25.70832,0 q 0,5.16667 2.625,7.75 2.625,2.58333 7.87499,2.58333 h 0.45834 q 2.04166,0 3.16666,-0.375 1.16667,-0.375 1.625,-1.125 0.5,-0.79166 0.5,-1.875 0,-1.29166 -0.83333,-1.99999 -0.83333,-0.70834 -2.625,-0.83334 l -0.625,-0.0417 q -2.70833,-0.20834 -3.83333,-1.54167 -1.08333,-1.375 -1.08333,-4.125 v -25.79165 h 5.58333 q 1.58333,0 2.41666,-0.79167 0.83333,-0.79167 0.83333,-2.20833 0,-1.41667 -0.83333,-2.16667 -0.83333,-0.79167 -2.41666,-0.79167 h -5.58333 v -7.41666 q 0,-1.70833 -1.04167,-2.79166 -1,-1.08334 -2.58333,-1.08334 -1.58334,0 -2.625,1.08334 -1,1.08333 -1,2.79166 v 7.41666 h -3.625 q -1.54167,0 -2.41667,0.79167 -0.83333,0.75 -0.83333,2.16667 0,1.41666 0.83333,2.20833 0.875,0.79167 2.41667,0.79167 h 3.625 z"
       id="text34"
       aria-label="Butt" />
    <path
       style="font-size:85.3333px;line-height:1.25;font-family:'.SF NS Rounded';-inkscape-font-specification:'.SF NS Rounded';text-align:center;word-spacing:0px;text-anchor:middle;fill:#ff8c00"
       d="m 795.62508,943.375 q 6.75,0 11.70833,-2.20833 5,-2.20834 7.75,-6.25 2.75,-4.08333 2.75,-9.625 0,-6.37499 -4.04167,-10.29166 -4.04166,-3.91666 -13.45833,-5.95833 l -6.66666,-1.45833 q -6.16666,-1.33333 -8.79166,-3.79167 -2.625,-2.45833 -2.625,-5.99999 0,-3.08334 1.75,-5.25 1.79166,-2.20833 4.79166,-3.375 3,-1.16667 6.75,-1.16667 3.25,0 5.91666,0.91667 2.70834,0.91667 4.625,2.875 1.95833,1.91666 3,4.95833 0.5,1.41667 1.41667,2.16666 0.91666,0.75 2.33333,0.75 1.5,0 2.45833,-0.91666 0.95833,-0.91667 0.95833,-2.45833 0,-1.125 -0.20833,-1.875 -1.08333,-4.08333 -4,-7 -2.875,-2.95833 -7.08333,-4.54167 -4.16666,-1.62499 -9.20833,-1.62499 -6.20833,0 -10.99999,2.16666 -4.79167,2.125 -7.5,5.95833 -2.70833,3.79167 -2.70833,8.75 0,6.41666 4.08333,10.54166 4.125,4.125 13.16666,6.08333 l 6.66667,1.45833 q 6.24999,1.375 8.95832,3.91667 2.70834,2.5 2.70834,6.29166 0,2.95834 -1.83334,5.29167 -1.79166,2.29166 -4.99999,3.625 -3.16667,1.29166 -7.25,1.29166 -3.79167,0 -6.91666,-0.95833 -3.125,-1 -5.33334,-3.04167 -2.16666,-2.04166 -3.08333,-5.12499 -0.41666,-1.5 -1.33333,-2.20834 -0.875,-0.75 -2.29167,-0.75 -1.58333,0 -2.54166,1.04167 -0.91667,1.04167 -0.91667,2.83333 0,0.66667 0.125,1.33334 0.125,0.66666 0.29167,1.29166 1.125,3.625 4.08333,6.41667 2.95833,2.74999 7.375,4.33333 4.45833,1.58333 10.12499,1.58333 z m 45.99998,-0.25 q 3.08334,0 5.70833,-0.95833 2.66667,-0.95834 4.75,-2.75 2.08333,-1.83333 3.41667,-4.29167 h 0.16666 v 18.66666 q 0,1.70833 1,2.79167 1.04167,1.08333 2.625,1.08333 1.58334,0 2.58333,-1.08333 1.04167,-1.08334 1.04167,-2.79167 v -51.83331 q 0,-1.58333 -0.95833,-2.625 -0.91667,-1.04166 -2.5,-1.04166 -1.54167,0 -2.5,1.04166 -0.95833,1 -0.95833,2.625 v 4.41667 h -0.16667 q -1.375,-2.5 -3.45833,-4.29167 -2.08333,-1.83333 -4.75,-2.79167 -2.66666,-0.99999 -5.83333,-0.99999 -5.54166,0 -9.70833,2.79166 -4.16666,2.75 -6.45833,7.79166 -2.29167,5 -2.29167,11.83333 0,6.79167 2.29167,11.83333 2.29167,5.04167 6.41666,7.83333 4.125,2.75 9.58333,2.75 z m 1.45834,-6.375 q -3.79167,0 -6.58333,-1.95833 -2.75,-1.95833 -4.25,-5.54166 -1.5,-3.625 -1.5,-8.54167 0,-4.95833 1.5,-8.54166 1.5,-3.625 4.25,-5.54167 2.79166,-1.95833 6.58333,-1.95833 3.70833,0 6.54166,2 2.83333,2 4.41666,5.625 1.625,3.58333 1.625,8.41666 0,4.83333 -1.625,8.45833 -1.58333,3.58333 -4.41666,5.58333 -2.83333,2 -6.54166,2 z m 44.04164,6.375 q 3.33334,0 5.95834,-0.875 2.62499,-0.91667 4.54166,-2.66667 1.95833,-1.74999 3.25,-4.24999 h 0.16667 v 4.12499 q 0,1.54167 0.95833,2.625 0.95833,1.04167 2.5,1.04167 1.58333,0 2.5,-1.04167 0.91666,-1.08333 0.91666,-2.625 v -37.29165 q 0,-1.70833 -1.04166,-2.79166 -1,-1.08333 -2.58334,-1.08333 -1.58333,0 -2.62499,1.08333 -1,1.08333 -1,2.79166 v 22.33333 q 0,3.66666 -1.375,6.41666 -1.33334,2.75 -3.875,4.29167 -2.5,1.5 -6.04167,1.5 -5.04166,0 -7.54166,-2.75 -2.45833,-2.79167 -2.45833,-8.08333 v -23.70833 q 0,-1.70833 -1.04167,-2.79166 -1,-1.08333 -2.58333,-1.08333 -1.58333,0 -2.625,1.08333 -1,1.08333 -1,2.79166 v 24.99999 q 0,4.91667 1.75,8.5 1.79167,3.58333 5.16666,5.54166 3.375,1.91667 8.08333,1.91667 z m 42.79165,0 q 2.91667,0 5.625,-1 2.70833,-1.04167 4.875,-2.875 2.16666,-1.875 3.45833,-4.33333 h 0.16667 q 0,1.125 0,2.29167 0,1.125 0,2.24999 0,1.625 0.95833,2.66667 0.95833,1 2.5,1 1.5,0 2.45833,-1 0.95833,-1.04167 0.95833,-2.66667 v -27.04165 q 0,-4.33333 -2.04166,-7.5 -2,-3.16666 -5.75,-4.875 -3.70833,-1.74999 -8.79166,-1.74999 -5.29167,0 -9.66667,2.16666 -4.33333,2.125 -6.16666,5.70833 -0.875,1.54167 -0.875,3 0,1.45833 0.875,2.375 0.91667,0.875 2.33333,0.875 2.04167,0 3,-1.75 1.83333,-3.20833 4.29167,-4.58333 2.49999,-1.41667 6.04166,-1.41667 4.5,0 7,2.25 2.5,2.25 2.5,6.20833 v 3.625 l -12.45833,0.70833 q -7.5,0.41667 -11.625,3.75 -4.08333,3.33333 -4.08333,8.91667 0,3.87499 1.79167,6.83333 1.83333,2.91666 5.08333,4.54166 3.25,1.625 7.54166,1.625 z m 1.625,-6.16666 q -3.91666,0 -6.29166,-1.875 -2.375,-1.875 -2.375,-4.95833 0,-3.08334 2.375,-4.91667 2.41666,-1.83333 6.79166,-2.125 l 11.625,-0.70833 v 3.54166 q 0,3.125 -1.625,5.625 -1.58334,2.5 -4.33333,3.95833 -2.75,1.45834 -6.16667,1.45834 z m 32.20832,6.16666 q 1.58333,0 2.58333,-1.08333 1.04167,-1.08334 1.04167,-2.79167 v -23.79166 q 0,-4.16666 2.20833,-7.20833 2.20833,-3.04166 7.125,-3.04166 1.20833,0 2.04166,-0.20833 0.875,-0.25 1.41667,-0.70834 1.125,-0.875 1.125,-2.54166 0,-0.75 -0.25,-1.375 -0.20834,-0.625 -0.66667,-1.04167 -0.54166,-0.5 -1.375,-0.75 -0.83333,-0.29166 -2.04166,-0.29166 -3.25,0 -6.08333,2.24999 -2.79167,2.20834 -3.75,5.58334 h -0.16667 v -4.16667 q 0,-1.625 -0.95833,-2.625 -0.95834,-1.04166 -2.45833,-1.04166 -1.5,0 -2.45834,1.04166 -0.95833,1 -0.95833,2.625 V 939.25 q 0,1.70833 1,2.79167 1.04167,1.08333 2.625,1.08333 z m 38.74999,0 q 5.9583,0 10.3333,-2.375 4.375,-2.41666 6.4584,-6.83333 0.5416,-1.29167 0.5416,-2.125 0,-1.45833 -0.875,-2.29166 -0.875,-0.875 -2.3333,-0.875 -0.8333,0 -1.5,0.33333 -0.625,0.33333 -1.2083,1.125 -2.5417,3.66666 -5.2084,5.20833 -2.625,1.54167 -6.5,1.54167 -5.79163,0 -9.16663,-3.79167 -3.375,-3.83333 -3.375,-10.375 0,0 0,0 0,0 0,0 H 1016.75 q 1.875,0 2.9167,-1.12499 1.0833,-1.125 1.0833,-3.08334 0,-5.95833 -2.4167,-10.49999 -2.4166,-4.54167 -6.6666,-7.08333 -4.25,-2.58333 -9.7917,-2.58333 -5.95833,0 -10.41666,2.79166 -4.41667,2.79167 -6.83334,7.875 -2.41666,5.08333 -2.41666,11.91666 0,10.49999 5.33333,16.37499 5.375,5.875 14.95833,5.875 z m -12.79166,-26.12499 q 0.25,-3.75 1.83333,-6.54166 1.58333,-2.79167 4.20833,-4.33333 2.625,-1.54167 6,-1.54167 3.375,0 5.9167,1.54167 2.5416,1.54166 4,4.33333 1.5,2.79166 1.5833,6.54166 z"
       id="text35"
       aria-label="Square" />
    <path
       style="font-size:85.3333px;line-height:1.25;font-family:'.SF NS Rounded';-inkscape-font-specification:'.SF NS Rounded';text-align:center;word-spacing:0px;text-anchor:middle;fill:#ff8c00"
       d="m 1299.5001,943.125 q 1.7083,0 2.7083,-1.04167 1.0417,-1.08333 1.0417,-2.83333 v -20.66666 h 14.375 q 0,0 0,0 0,0 0,0 l 12.0416,22.12499 q 0.5,0.875 1,1.41667 0.5417,0.54167 1.1667,0.75 0.625,0.25 1.5,0.25 1.625,0 2.7083,-1 1.125,-1 1.125,-2.45833 0,-0.625 -0.1666,-1.20834 -0.1667,-0.62499 -0.625,-1.41666 l -11,-19.62499 q 5.6666,-1.79167 8.875,-6.375 3.2083,-4.58333 3.2083,-10.875 0,-5.41666 -2.375,-9.41666 -2.375,-4.04166 -6.7083,-6.25 -4.2917,-2.24999 -10.0834,-2.24999 h -18.7916 q -1.7083,0 -2.75,1.04166 -1,1.04167 -1,2.83333 V 939.25 q 0,1.75 1.0417,2.83333 1.0416,1.04167 2.7083,1.04167 z m 3.75,-31.16665 v -23.04166 h 14.0416 q 5.8334,0 9.125,3.04166 3.2917,3.04167 3.2917,8.45833 0,5.54167 -3.1667,8.54167 -3.125,3 -8.9166,3 z m 60.4583,31.16665 q 6,0 10.5,-2.70833 4.5,-2.75 7,-7.79167 2.5416,-5.04166 2.5416,-11.91666 0,-6.91666 -2.5416,-11.91666 -2.5,-5.04166 -7,-7.75 -4.5,-2.74999 -10.5,-2.74999 -6,0 -10.5417,2.74999 -4.5,2.70834 -7.0416,7.75 -2.5,5 -2.5,11.91666 0,6.875 2.5,11.91666 2.5416,5.04167 7.0416,7.79167 4.5417,2.70833 10.5417,2.70833 z m 0,-6.375 q -3.8333,0 -6.7083,-1.875 -2.8334,-1.875 -4.4167,-5.45833 -1.5833,-3.625 -1.5833,-8.70833 0,-5.125 1.5833,-8.70833 1.5833,-3.58333 4.4167,-5.45833 2.875,-1.875 6.7083,-1.875 3.8333,0 6.6667,1.875 2.875,1.875 4.4166,5.45833 1.5834,3.58333 1.5834,8.70833 0,5.08333 -1.5834,8.70833 -1.5416,3.58333 -4.4166,5.45833 -2.8334,1.875 -6.6667,1.875 z m 42.125,6.375 q 3.3333,0 5.9583,-0.875 2.625,-0.91667 4.5417,-2.66667 1.9583,-1.74999 3.25,-4.24999 h 0.1666 v 4.12499 q 0,1.54167 0.9584,2.625 0.9583,1.04167 2.5,1.04167 1.5833,0 2.5,-1.04167 0.9166,-1.08333 0.9166,-2.625 v -37.29165 q 0,-1.70833 -1.0416,-2.79166 -1,-1.08333 -2.5834,-1.08333 -1.5833,0 -2.625,1.08333 -1,1.08333 -1,2.79166 v 22.33333 q 0,3.66666 -1.375,6.41666 -1.3333,2.75 -3.875,4.29167 -2.5,1.5 -6.0416,1.5 -5.0417,0 -7.5417,-2.75 -2.4583,-2.79167 -2.4583,-8.08333 v -23.70833 q 0,-1.70833 -1.0417,-2.79166 -1,-1.08333 -2.5833,-1.08333 -1.5834,0 -2.625,1.08333 -1,1.08333 -1,2.79166 v 24.99999 q 0,4.91667 1.75,8.5 1.7916,3.58333 5.1666,5.54166 3.375,1.91667 8.0834,1.91667 z m 33.7916,0 q 1.5834,0 2.5834,-1.08333 1.0416,-1.08334 1.0416,-2.79167 v -22.37499 q 0,-3.66666 1.375,-6.375 1.4167,-2.75 3.9584,-4.24999 2.5416,-1.54167 5.9583,-1.54167 5,0 7.4583,2.79166 2.5,2.79167 2.5,8.04167 V 939.25 q 0,1.70833 1,2.79167 1.0417,1.08333 2.625,1.08333 1.5833,0 2.5833,-1.08333 1.0417,-1.08334 1.0417,-2.79167 v -24.99999 q 0,-4.91666 -1.7917,-8.49999 -1.75,-3.58334 -5.125,-5.5 -3.3333,-1.95833 -8.0833,-1.95833 -5.0416,0 -8.5,2.08333 -3.4166,2.08333 -5.25,5.58333 h -0.1666 v -4 q 0,-1.625 -0.9584,-2.625 -0.9583,-1.04166 -2.4583,-1.04166 -1.5,0 -2.4583,1.04166 -0.9584,1 -0.9584,2.625 V 939.25 q 0,1.70833 1,2.79167 1.0417,1.08333 2.625,1.08333 z m 57.75,0 q 3.4167,0 6.0417,-1.04167 2.625,-1.04166 4.5416,-2.95833 1.9167,-1.91666 3.0834,-4.5 h 0.125 v 4.95833 q 0,1.58334 1.0833,2.58334 1.0833,0.95833 2.625,0.95833 1.5833,0 2.5417,-1 1,-1 1,-2.54167 v -54.20831 q 0,-1.70833 -1.0417,-2.79166 -1,-1.08333 -2.5833,-1.08333 -1.5834,0 -2.625,1.08333 -1,1.08333 -1,2.79166 v 20.70833 H 1511 q -1.2917,-2.375 -3.3333,-4.125 -2.0417,-1.75 -4.7084,-2.70833 -2.625,-0.95833 -5.75,-0.95833 -5.4583,0 -9.625,2.79166 -4.125,2.75 -6.4583,7.79166 -2.2917,5.04167 -2.2917,11.83333 0,6.79167 2.3334,11.83333 2.3333,5.04167 6.5,7.83333 4.2083,2.75 9.7083,2.75 z m 1.375,-6.375 q -3.8333,0 -6.6667,-1.95833 -2.7916,-1.95833 -4.3333,-5.54166 -1.5,-3.625 -1.5,-8.54167 0,-4.91666 1.5,-8.49999 1.5417,-3.58334 4.3333,-5.54167 2.8334,-2 6.6667,-2 3.75,0 6.5417,2 2.7916,2 4.3333,5.625 1.5833,3.58333 1.5833,8.41666 0,4.83333 -1.5833,8.45833 -1.5417,3.625 -4.3333,5.625 Q 1502.5,936.75 1498.75,936.75 Z"
       id="text36"
       aria-label="Round" />
    <path
       style="font-size:85.3333px;line-height:1.25;font-family:'.SF NS Rounded';-inkscape-font-specification:'.SF NS Rounded';text-align:center;word-spacing:0px;text-anchor:middle;fill:#ff8c00"
       d="m 1938.5419,943.375 q 5.5,0 9.9166,-1.45833 4.4167,-1.45834 7.6667,-4.25 3.25,-2.79167 5.2083,-6.75 1,-2 1,-3.75 0,-1.45833 -0.9583,-2.41666 -0.9583,-0.95834 -2.4583,-0.95834 -1.25,0 -2.0834,0.625 -0.8333,0.625 -1.4166,2 -1.4167,3.375 -3.875,5.625 -2.4584,2.20833 -5.75,3.33333 -3.2917,1.08334 -7.2084,1.08334 -5.9166,0 -10.2916,-2.95834 -4.375,-3 -6.75,-8.41666 -2.375,-5.41666 -2.375,-12.79166 0,-7.33333 2.375,-12.75 2.4166,-5.41666 6.75,-8.37499 4.375,-3 10.25,-3 3.7083,0 6.9583,1.25 3.2917,1.25 5.7917,3.70833 2.5416,2.41667 3.9583,5.95833 0.625,1.58333 1.5833,2.375 1,0.75 2.375,0.75 1.5417,0 2.4584,-0.91667 0.9166,-0.95833 0.9166,-2.5 0,-1.41666 -0.625,-2.95833 -1.75,-4.5 -5.2083,-7.74999 -3.4167,-3.29167 -8.0833,-5.04167 -4.625,-1.79166 -10.125,-1.79166 -8.2084,0 -14.3334,3.83333 -6.0833,3.83333 -9.4166,10.79166 -3.3333,6.95833 -3.3333,16.41666 0,9.54166 3.2916,16.49999 3.3334,6.95833 9.4167,10.79166 6.0833,3.79167 14.375,3.79167 z m 47.4583,-0.25 q 3.3333,0 5.9583,-0.875 2.625,-0.91667 4.5417,-2.66667 1.9583,-1.74999 3.25,-4.24999 h 0.1666 v 4.12499 q 0,1.54167 0.9584,2.625 0.9583,1.04167 2.5,1.04167 1.5833,0 2.5,-1.04167 0.9166,-1.08333 0.9166,-2.625 v -37.29165 q 0,-1.70833 -1.0416,-2.79166 -1,-1.08333 -2.5834,-1.08333 -1.5833,0 -2.625,1.08333 -1,1.08333 -1,2.79166 v 22.33333 q 0,3.66666 -1.375,6.41666 -1.3333,2.75 -3.8749,4.29167 -2.5,1.5 -6.0417,1.5 -5.0417,0 -7.5417,-2.75 -2.4583,-2.79167 -2.4583,-8.08333 v -23.70833 q 0,-1.70833 -1.0417,-2.79166 -1,-1.08333 -2.5833,-1.08333 -1.5833,0 -2.625,1.08333 -1,1.08333 -1,2.79166 v 24.99999 q 0,4.91667 1.75,8.5 1.7917,3.58333 5.1667,5.54166 3.375,1.91667 8.0833,1.91667 z m 45.2083,0 q 5.1667,0 9.0417,-1.625 3.875,-1.625 6.0416,-4.54166 2.1667,-2.91667 2.1667,-6.79167 0,-4.79166 -2.7917,-7.41666 -2.7916,-2.66667 -9.5833,-4.33333 l -6.4583,-1.58334 q -3.5417,-0.875 -5.3334,-2.41666 -1.75,-1.58333 -1.75,-3.83333 0,-2.79167 2.4584,-4.54167 2.4583,-1.79166 6.375,-1.79166 3.3333,0 5.5,1.25 2.1666,1.24999 3.5833,3.95833 0.5833,1.125 1.375,1.54166 0.7917,0.41667 1.8333,0.41667 1.3334,0 2.0834,-0.75 0.75,-0.79167 0.75,-2.08333 0,-0.45834 -0.125,-1.08334 -0.5417,-2.62499 -2.6667,-4.70833 -2.125,-2.08333 -5.25,-3.29166 -3.0833,-1.20833 -6.6667,-1.20833 -7.3333,0 -11.875,3.49999 -4.5416,3.5 -4.5416,9.16667 0,4.54166 3.0416,7.54166 3.0834,3 9.375,4.58333 l 6.625,1.66667 q 3.6667,0.91666 5.1667,2.29166 1.5,1.375 1.5,3.70833 0,2 -1.1667,3.45834 -1.1666,1.45833 -3.25,2.25 -2.0833,0.75 -4.875,0.75 -4.1666,0 -6.4166,-1.33334 -2.25,-1.33333 -3.875,-4.16666 -1.2084,-2.16667 -3.1667,-2.16667 -1.4167,0 -2.375,0.79167 -0.9167,0.75 -0.9167,2.20833 0,0.875 0.3334,1.70833 1.5833,4.04167 5.7916,6.45833 4.25,2.41667 10.0417,2.41667 z m 27,-10.75 q 0,5.16667 2.625,7.75 2.625,2.58333 7.875,2.58333 h 0.4583 q 2.0417,0 3.1667,-0.375 1.1666,-0.375 1.625,-1.125 0.5,-0.79166 0.5,-1.875 0,-1.29166 -0.8334,-1.99999 -0.8333,-0.70834 -2.625,-0.83334 l -0.625,-0.0417 q -2.7083,-0.20834 -3.8333,-1.54167 -1.0833,-1.375 -1.0833,-4.125 v -25.79165 h 5.5833 q 1.5833,0 2.4167,-0.79167 0.8333,-0.79167 0.8333,-2.20833 0,-1.41667 -0.8333,-2.16667 -0.8334,-0.79167 -2.4167,-0.79167 h -5.5833 v -7.41666 q 0,-1.70833 -1.0417,-2.79166 -1,-1.08334 -2.5833,-1.08334 -1.5833,0 -2.625,1.08334 -1,1.08333 -1,2.79166 v 7.41666 h -3.625 q -1.5417,0 -2.4167,0.79167 -0.8333,0.75 -0.8333,2.16667 0,1.41666 0.8333,2.20833 0.875,0.79167 2.4167,0.79167 h 3.625 z m 40.0833,10.75 q 6,0 10.5,-2.70833 4.5,-2.75 7,-7.79167 2.5417,-5.04166 2.5417,-11.91666 0,-6.91666 -2.5417,-11.91666 -2.5,-5.04166 -7,-7.75 -4.5,-2.74999 -10.5,-2.74999 -6,0 -10.5417,2.74999 -4.5,2.70834 -7.0416,7.75 -2.5,5 -2.5,11.91666 0,6.875 2.5,11.91666 2.5416,5.04167 7.0416,7.79167 4.5417,2.70833 10.5417,2.70833 z m 0,-6.375 q -3.8333,0 -6.7083,-1.875 -2.8334,-1.875 -4.4167,-5.45833 -1.5833,-3.625 -1.5833,-8.70833 0,-5.125 1.5833,-8.70833 1.5833,-3.58333 4.4167,-5.45833 2.875,-1.875 6.7083,-1.875 3.8333,0 6.6667,1.875 2.875,1.875 4.4166,5.45833 1.5834,3.58333 1.5834,8.70833 0,5.08333 -1.5834,8.70833 -1.5416,3.58333 -4.4166,5.45833 -2.8334,1.875 -6.6667,1.875 z m 30.9583,6.375 q 1.6667,0 2.625,-1.08333 1,-1.125 1,-2.79167 v -24.04166 q 0,-4.49999 2.7917,-7.49999 2.8333,-3 7.125,-3 4.0416,0 6.4583,2.375 2.4167,2.33333 2.4167,6.25 V 939.25 q 0,1.66667 0.9583,2.79167 1,1.08333 2.6667,1.08333 1.6666,0 2.625,-1.08333 1,-1.125 1,-2.79167 v -24.41666 q 0,-4.41666 2.75,-7.24999 2.75,-2.875 7.0416,-2.875 4.2917,0 6.625,2.5 2.375,2.45833 2.375,6.91666 V 939.25 q 0,1.66667 0.9584,2.79167 1,1.08333 2.6666,1.08333 1.6667,0 2.625,-1.08333 1,-1.125 1,-2.79167 v -26.79165 q 0,-4.29167 -1.75,-7.45833 -1.75,-3.20834 -4.9166,-4.95834 -3.1667,-1.74999 -7.4584,-1.74999 -3.0416,0 -5.7083,0.99999 -2.625,0.95834 -4.6667,2.83334 -2,1.83333 -3.2083,4.41666 h -0.1667 q -0.9166,-2.625 -2.6666,-4.45833 -1.75,-1.83333 -4.1667,-2.79167 -2.375,-0.99999 -5.3333,-0.99999 -4.375,0 -7.5833,2.12499 -3.1667,2.08334 -4.7084,5.54167 h -0.1666 v -4 q 0,-1.625 -0.9584,-2.625 -0.9583,-1.04166 -2.4583,-1.04166 -1.5,0 -2.4583,1.04166 -0.9584,1 -0.9584,2.625 V 939.25 q 0,1.66667 0.9584,2.79167 1,1.08333 2.6666,1.08333 z"
       id="text37"
       aria-label="Custom" />
  </g>
</svg>
