<?xml version="1.0" encoding="UTF-8" standalone="no"?>
<!-- Created with Inkscape (http://www.inkscape.org/) -->

<svg
   width="128"
   height="128"
   viewBox="0 0 128 128"
   version="1.1"
   id="svg5"
   inkscape:version="1.3.2 (091e20e, 2023-11-25)"
   sodipodi:docname="union.svg"
   xmlns:inkscape="http://www.inkscape.org/namespaces/inkscape"
   xmlns:sodipodi="http://sodipodi.sourceforge.net/DTD/sodipodi-0.dtd"
   xmlns="http://www.w3.org/2000/svg"
   xmlns:svg="http://www.w3.org/2000/svg">
  <sodipodi:namedview
     id="namedview7"
     pagecolor="#5f5f5f"
     bordercolor="#666666"
     borderopacity="1.0"
     inkscape:showpageshadow="2"
     inkscape:pageopacity="0.0"
     inkscape:pagecheckerboard="true"
     inkscape:deskcolor="#d1d1d1"
     inkscape:document-units="px"
     showgrid="false"
     inkscape:zoom="2.7155565"
     inkscape:cx="93.903403"
     inkscape:cy="38.297858"
     inkscape:window-width="1736"
     inkscape:window-height="1177"
     inkscape:window-x="477"
     inkscape:window-y="118"
     inkscape:window-maximized="0"
     inkscape:current-layer="layer1" />
  <defs
     id="defs2">
    <clipPath
       clipPathUnits="userSpaceOnUse"
       id="clipPath25">
      <rect
         style="fill:#ff0000;stroke:none;stroke-width:3;stroke-linecap:square;stroke-linejoin:miter;paint-order:stroke markers fill;stop-color:#000000"
         id="rect25-8"
         width="78"
         height="45.033199"
         x="763.61322"
         y="452.82422" />
    </clipPath>
  </defs>
  <g
     inkscape:label="Layer 1"
     inkscape:groupmode="layer"
     id="layer1">
    <path
       id="rect15"
       style="fill:#483d8b;fill-opacity:1;stroke:#ffffff;stroke-width:2;stroke-linecap:round;stroke-linejoin:round;stroke-miterlimit:16;stroke-dasharray:none;stroke-dashoffset:12;stroke-opacity:1;paint-order:fill markers stroke"
       d="M 52,20 A 32,32 0 0 0 20,52 32,32 0 0 0 52,84 v 24 h 56 V 52 H 84 A 32,32 0 0 0 52,20 Z" />
    <g
       id="g2"
       transform="translate(-3.202954,-0.107766)"
       style="fill:#ffffff;fill-opacity:1">
      <path
         style="font-size:24px;line-height:1.25;font-family:'.Arial Hebrew Desk Interface';-inkscape-font-specification:'.Arial Hebrew Desk Interface';word-spacing:0px;direction:rtl;fill:#ffffff;fill-opacity:1"
         d="m 48.999829,53.556985 h -2.472656 l -1.710937,-4.863281 h -7.546875 l -1.710938,4.863281 h -2.355469 l 6.351563,-17.449219 h 3.09375 z m -4.898437,-6.855469 -3.058594,-8.566406 -3.070312,8.566406 z"
         id="text1"
         aria-label="A" />
      <path
         d="m 90.760976,101.75299 h 5.4 c 3.624,0 5.448004,-1.872004 5.448004,-4.536004 0,-2.448 -1.44,-3.576 -3.408004,-3.888 v -0.12 c 1.896004,-0.552 2.688004,-1.824 2.688004,-3.504 0,-2.568 -1.488004,-4.056 -5.208004,-4.056 h -4.92 z m 1.896,-1.584 v -5.976004 h 3.192 c 2.4,0 3.744,0.816 3.744,2.904 0,2.064 -1.224,3.072004 -3.552,3.072004 z m 0,-7.488004 v -5.424 h 2.88 c 2.256,0 3.408,0.648 3.408,2.664 0,2.088 -1.512,2.76 -3.528,2.76 z"
         id="text2"
         style="-inkscape-font-specification:'.Apple SD Gothic NeoI';fill:#ffffff;fill-opacity:1"
         aria-label="B" />
    </g>
  </g>
</svg>
